# xmcd
#
# Track frame offsets: 
#        150
#        29725
#        61397
#        87348
#        115189
#        160102
#        192198
#        227243
#        253508
#        281591
#
# Disc length: 4180 seconds
#
# Revision: 0
# Processed by: cddbd v1.5.2PL0 Copyright (c) Steve Scherf et al.
# Submitted via: ExactAudioCopyFreeDBPlugin 1.0
#
DISCID=8710520a
DTITLE=Various Artist - STUDIO-X2 X17DB
DYEAR=2004
DGENRE=Drum and Bass
TTITLE0=Alex DB - Aurora Boreal
TTITLE1=J-Laze - Virtual Realmz
TTITLE2=Kymera - Following Forward
TTITLE3=Vice versa - Luck of The Draw
TTITLE4=Nu-Moon - Too Right
TTITLE5=Greenfly - Gulfstream
TTITLE6=Pariah - Angels Falls
TTITLE7=Cubix - Thoughts
TTITLE8=Vice versa - Trust
TTITLE9=Greenfly - Biorhythms
EXTD=
EXTT0=
EXTT1=
EXTT2=
EXTT3=
EXTT4=
EXTT5=
EXTT6=
EXTT7=
EXTT8=
EXTT9=
PLAYORDER=
